<svg width="24" height="24" viewBox="0 0 24 24" fill="none" xmlns="http://www.w3.org/2000/svg">
<path d="M1.31196 11.8863C1.38039 11.111 1.48011 10.988 2.21432 10.7651C3.21346 10.4617 3.90954 9.82211 4.30842 8.87528C4.4883 8.44887 4.72978 8.33451 5.18536 8.48472C7.70668 9.31914 9.94156 7.50397 9.60037 4.90479C9.54562 4.49097 9.66782 4.23416 10.0452 4.04421C10.8195 3.65462 11.3454 3.03535 11.6387 2.2242C11.8861 1.54 11.9995 1.46247 12.7435 1.46925C18.9837 1.52837 23.9873 6.52904 24 12.7198C24.0166 21.0213 15.1778 26.4988 7.65585 22.849C3.47449 20.8207 0.912106 16.3918 1.31196 11.8863Z" fill="url(#paint0_linear_3_1226)"/>
<path d="M5.7105 2.83752C4.60479 2.84043 3.72296 3.72233 3.73176 4.81744C3.74056 5.91545 4.63705 6.78766 5.73787 6.77022C6.83283 6.75278 7.71759 5.84955 7.70194 4.76608C7.6863 3.70973 6.78394 2.83559 5.7105 2.83849V2.83752Z" fill="#1974D1"/>
<path d="M1.99052 5.51728C1.98074 4.96682 1.53494 4.53653 0.986486 4.54719C0.4263 4.55785 -0.000928521 4.98717 4.91142e-05 5.53763C0.00102675 6.10457 0.469316 6.55715 1.03243 6.53486C1.58676 6.51257 2.00127 6.07259 1.99052 5.51728Z" fill="#1974D1"/>
<path d="M8.42324 2.47784C8.97169 2.46718 9.40479 2.02526 9.40479 1.47771C9.40479 0.914646 8.93454 0.471758 8.36165 0.495016C7.81124 0.517306 7.39085 0.96601 7.40747 1.5155C7.42409 2.06015 7.87674 2.48947 8.42324 2.47784Z" fill="#1974D1"/>
<path d="M2.73747 0.699741C2.72574 0.314031 2.39432 -0.0038414 2.00815 3.50842e-05C1.62492 0.00294245 1.29252 0.333413 1.29057 0.71234C1.28959 1.12034 1.63469 1.44887 2.0453 1.43143C2.44124 1.41398 2.7492 1.08836 2.73747 0.699741Z" fill="#1974D1"/>
<path d="M11.6483 17.5417C11.5753 17.6143 11.457 17.6143 11.384 17.5417L9.24097 15.4097C8.12476 14.2992 8.12476 12.4988 9.24097 11.3883C9.29288 11.3367 9.37706 11.3367 9.42897 11.3883L13.499 15.4375C13.572 15.5101 13.572 15.6278 13.499 15.7005L11.6483 17.5417Z" fill="white"/>
<path d="M11.9255 13.1859C11.8739 13.1338 11.8745 13.0501 11.9268 12.9988L16.0263 8.97918C16.0998 8.90708 16.2182 8.90793 16.2907 8.98109L18.1279 10.8356C18.2004 10.9087 18.1995 11.0265 18.126 11.0986L15.9675 13.215C14.8432 14.3174 13.0335 14.3044 11.9255 13.1859Z" fill="white"/>
<defs>
<linearGradient id="paint0_linear_3_1226" x1="12.6355" y1="1.46887" x2="12.6355" y2="24.0001" gradientUnits="userSpaceOnUse">
<stop stop-color="#0777E6"/>
<stop offset="1" stop-color="#69B4FF"/>
</linearGradient>
</defs>
</svg>
