<svg width="8" height="8" viewBox="0 0 8 8" fill="none" xmlns="http://www.w3.org/2000/svg">
<path d="M0.896447 6.39645C0.701184 6.59171 0.701184 6.90829 0.896447 7.10355C1.09171 7.29882 1.40829 7.29882 1.60355 7.10355L1.25 6.75L0.896447 6.39645ZM7.25 1.25C7.25 0.973858 7.02614 0.75 6.75 0.75H2.25C1.97386 0.75 1.75 0.973858 1.75 1.25C1.75 1.52614 1.97386 1.75 2.25 1.75H6.25V5.75C6.25 6.02614 6.47386 6.25 6.75 6.25C7.02614 6.25 7.25 6.02614 7.25 5.75V1.25ZM1.25 6.75L1.60355 7.10355L7.10355 1.60355L6.75 1.25L6.39645 0.896447L0.896447 6.39645L1.25 6.75Z" fill="white" fill-opacity="0.8"/>
</svg>
